<?xml version="1.0" encoding="UTF-8" standalone="no"?>
<!-- Created with Inkscape (http://www.inkscape.org/) -->

<svg
   width="40in"
   height="30in"
   viewBox="0 0 1016 761.99998"
   version="1.1"
   id="svg5"
   inkscape:version="1.1 (c4e8f9e, 2021-05-24)"
   sodipodi:docname="poster.svg"
   xmlns:inkscape="http://www.inkscape.org/namespaces/inkscape"
   xmlns:sodipodi="http://sodipodi.sourceforge.net/DTD/sodipodi-0.dtd"
   xmlns="http://www.w3.org/2000/svg"
   xmlns:svg="http://www.w3.org/2000/svg">
  <sodipodi:namedview
     id="namedview7"
     pagecolor="#ffffff"
     bordercolor="#666666"
     borderopacity="1.0"
     inkscape:pageshadow="2"
     inkscape:pageopacity="0.0"
     inkscape:pagecheckerboard="0"
     inkscape:document-units="in"
     showgrid="false"
     units="in"
     showguides="false"
     inkscape:snap-grids="false"
     inkscape:zoom="0.23716796"
     inkscape:cx="1897.3895"
     inkscape:cy="1269.1428"
     inkscape:window-width="1920"
     inkscape:window-height="1080"
     inkscape:window-x="0"
     inkscape:window-y="0"
     inkscape:window-maximized="0"
     inkscape:current-layer="layer1">
    <sodipodi:guide
       position="0,761.99999"
       orientation="0,3840"
       id="guide824" />
    <sodipodi:guide
       position="1016,761.99999"
       orientation="2880,0"
       id="guide826" />
    <sodipodi:guide
       position="1016,0"
       orientation="0,-3840"
       id="guide828" />
    <sodipodi:guide
       position="0,0"
       orientation="-2880,0"
       id="guide830" />
    <inkscape:grid
       type="xygrid"
       id="grid832"
       dotted="false" />
  </sodipodi:namedview>
  <defs
     id="defs2">
    <rect
       x="4.2164211"
       y="8.1051429e-09"
       width="3841.1597"
       height="569.21684"
       id="rect8674" />
  </defs>
  <g
     inkscape:label="Layer 1"
     inkscape:groupmode="layer"
     id="layer1">
    <rect
       style="opacity:1;fill:#4d4d4d;fill-opacity:1;stroke:#000000;stroke-width:0.279508;stroke-linecap:round;stroke-miterlimit:4;stroke-dasharray:0, 3.07459;stroke-dashoffset:0;paint-order:stroke fill markers"
       id="rect860"
       width="1016.3093"
       height="145.87671"
       x="1.1133605"
       y="-0.0022465466"
       ry="19.101929" />
    <text
       xml:space="preserve"
       transform="scale(0.26458333)"
       id="text8672"
       style="line-height:1.25;font-family:'Andale Mono';font-size:12px;writing-mode:tb-rl;-inkscape-font-specification:'Andale Mono';white-space:pre;shape-inside:url(#rect8674)" />
    <text
       xml:space="preserve"
       style="font-size:50.8px;line-height:1.25;font-family:'Andale Mono';-inkscape-font-specification:'Andale Mono';writing-mode:tb-rl;stroke-width:0.264583"
       x="509.10678"
       y="80.97789"
       id="text11958"><tspan
         id="tspan11956"
         style="font-style:normal;font-variant:normal;font-weight:bold;font-stretch:normal;font-size:50.8px;font-family:Arial;-inkscape-font-specification:'Arial Bold';text-align:center;writing-mode:lr-tb;direction:ltr;text-anchor:middle;fill:#ffffff;stroke-width:0.264583"
         x="509.10678"
         y="80.97789"
         rotate="0 0 0 0 0 0 0 0 0 0 0 0 0 0 0 0 0 0 0 0 0"
         sodipodi:role="line">NBA Draft Prediction</tspan></text>
    <text
       xml:space="preserve"
       style="font-style:normal;font-variant:normal;font-weight:normal;font-stretch:normal;font-size:11.2889px;line-height:1.25;font-family:Arial;-inkscape-font-specification:Arial;writing-mode:lr-tb;stroke-width:0.264583"
       x="426.86124"
       y="108.21269"
       id="text48686"><tspan
         sodipodi:role="line"
         id="tspan48684"
         style="font-style:normal;font-variant:normal;font-weight:normal;font-stretch:normal;font-family:Arial;-inkscape-font-specification:Arial;writing-mode:lr-tb;fill:#ffffff;stroke-width:0.264583"
         x="426.86124"
         y="108.21269">(Subtitle) ANLY 512 Final Project </tspan></text>
    <g
       id="g53179"
       transform="matrix(0.26458333,0,0,0.26458333,871.80477,9.4500257)">
      <g
         id="g53121">
        <path
           style="fill:#c75924"
           d="M 425.233,84.5 C 381.354,38.595 319.517,10 251,10 182.483,10 120.646,38.595 76.767,84.5 35.406,127.769 10,186.417 10,251 10,315.583 35.406,374.231 76.767,417.5 120.646,463.405 182.483,492 251,492 319.517,492 381.354,463.405 425.233,417.5 466.594,374.231 492,315.583 492,251 492,186.417 466.594,127.769 425.233,84.5 Z"
           id="path53111" />
        <g
           id="g53119">
          <path
             d="M 432.462,77.59 C 409.272,53.329 381.984,34.246 351.358,20.871 319.645,7.022 285.88,0 251,0 216.12,0 182.355,7.022 150.642,20.872 120.016,34.247 92.729,53.33 69.538,77.59 24.696,124.502 0,186.086 0,251 c 0,64.914 24.696,126.498 69.538,173.41 23.19,24.261 50.478,43.344 81.104,56.719 C 182.355,494.978 216.12,502 251,502 c 34.88,0 68.645,-7.022 100.358,-20.872 30.626,-13.375 57.914,-32.458 81.104,-56.719 C 477.304,377.498 502,315.914 502,251 502,186.086 477.304,124.502 432.462,77.59 Z m -7.537,325.436 C 403.429,382.334 378.727,365.824 351.358,353.871 322.686,341.35 292.334,334.43 261,333.214 V 261 h 220.782 c -2.244,52.636 -22.165,102.404 -56.857,142.026 z m -347.85,0 C 42.383,363.404 22.462,313.636 20.218,261 H 241 v 72.214 c -31.334,1.216 -61.686,8.136 -90.358,20.657 -27.37,11.954 -52.071,28.463 -73.567,49.155 z m 0,-304.052 c 21.496,20.692 46.198,37.202 73.567,49.155 28.672,12.521 59.024,19.441 90.358,20.657 V 241 H 20.218 C 22.462,188.364 42.383,138.596 77.075,98.974 Z M 261,241 v -72.214 c 31.334,-1.216 61.686,-8.136 90.358,-20.657 27.37,-11.953 52.071,-28.463 73.567,-49.155 34.692,39.623 54.612,89.39 56.857,142.026 z M 411.112,84.488 C 370.284,123.848 317.629,146.396 261,148.774 V 20.221 c 56.625,2.378 109.285,24.914 150.112,64.267 z M 241,20.221 V 148.774 C 184.371,146.396 131.716,123.848 90.888,84.488 131.715,45.135 184.375,22.599 241,20.221 Z M 90.888,417.512 C 131.716,378.152 184.371,355.604 241,353.226 V 481.779 C 184.375,479.401 131.715,456.865 90.888,417.512 Z M 261,481.779 V 353.226 c 56.629,2.378 109.284,24.926 150.112,64.286 -40.827,39.353 -93.487,61.889 -150.112,64.267 z"
             id="path53113" />
          <path
             d="m 123.868,91.619 c 1.952,2.729 5.023,4.182 8.141,4.182 2.014,0 4.048,-0.607 5.811,-1.869 22.895,-16.383 48.479,-27.336 76.042,-32.556 5.427,-1.027 8.993,-6.259 7.965,-11.686 -1.027,-5.426 -6.261,-8.995 -11.686,-7.965 -30.438,5.763 -58.686,17.856 -83.96,35.941 -4.492,3.215 -5.527,9.461 -2.313,13.953 z"
             id="path53115" />
          <path
             d="m 48.293,225.852 c 0.58,0.101 1.155,0.149 1.724,0.149 4.771,0 8.996,-3.427 9.841,-8.289 4.907,-28.236 15.807,-54.459 32.397,-77.942 3.187,-4.511 2.113,-10.75 -2.397,-13.938 -4.511,-3.187 -10.751,-2.113 -13.938,2.397 -18.314,25.923 -30.348,54.877 -35.767,86.057 -0.945,5.443 2.699,10.62 8.14,11.566 z"
             id="path53117" />
        </g>
      </g>
      <g
         id="g53123" />
      <g
         id="g53125" />
      <g
         id="g53127" />
      <g
         id="g53129" />
      <g
         id="g53131" />
      <g
         id="g53133" />
      <g
         id="g53135" />
      <g
         id="g53137" />
      <g
         id="g53139" />
      <g
         id="g53141" />
      <g
         id="g53143" />
      <g
         id="g53145" />
      <g
         id="g53147" />
      <g
         id="g53149" />
      <g
         id="g53151" />
    </g>
    <rect
       style="opacity:1;fill:#ffffff;fill-opacity:1;stroke:#000000;stroke-width:0.28400101;stroke-linecap:round;stroke-dasharray:0,3.12401108;paint-order:stroke fill markers;stroke-miterlimit:4;stroke-dashoffset:0"
       id="rect78154"
       width="506.48004"
       height="611.39471"
       x="1.1155947"
       y="150.60529" />
    <rect
       style="fill:#bfc8c8;fill-opacity:1;stroke:#000000;stroke-width:0.2794;stroke-linecap:round;stroke-miterlimit:4;stroke-dasharray:0, 3.0734;stroke-dashoffset:0;paint-order:stroke fill markers"
       id="rect114486-27"
       width="390.45816"
       height="29.005468"
       x="2.9087715"
       y="621.38629"
       ry="8.5419426"
       rx="6.3107567" />
    <text
       xml:space="preserve"
       style="font-size:19.7556px;line-height:1.25;font-family:'Andale Mono';-inkscape-font-specification:'Andale Mono';writing-mode:tb-rl;stroke-width:0.264583"
       x="1.1155947"
       y="642.58258"
       id="text83860-1"><tspan
         sodipodi:role="line"
         id="tspan83858-5"
         style="font-style:normal;font-variant:normal;font-weight:normal;font-stretch:normal;font-size:19.7556px;font-family:'Arial Black';-inkscape-font-specification:'Arial Black, ';writing-mode:lr-tb;stroke-width:0.264583"
         x="1.1155947"
         y="642.58258">   Methods</tspan></text>
    <rect
       style="fill:#ffffff;fill-opacity:1;stroke:#000000;stroke-width:0.28400101;stroke-linecap:round;stroke-dasharray:0,3.12401108;paint-order:stroke fill markers;stroke-miterlimit:4;stroke-dashoffset:0"
       id="rect78154-8"
       width="506.48004"
       height="611.39471"
       x="510.94235"
       y="150.60529" />
    <rect
       style="fill:#bfc8c8;fill-opacity:1;stroke:#000000;stroke-width:0.2794;stroke-linecap:round;stroke-miterlimit:4;stroke-dasharray:0, 3.0734;stroke-dashoffset:0;paint-order:stroke fill markers"
       id="rect114486-7"
       width="390.45816"
       height="29.005468"
       x="513.85114"
       y="613.57709"
       ry="8.5419426"
       rx="6.3107567" />
    <text
       xml:space="preserve"
       style="font-size:19.7556px;line-height:1.25;font-family:'Andale Mono';-inkscape-font-specification:'Andale Mono';writing-mode:tb-rl;stroke-width:0.264583"
       x="510.94235"
       y="634.77338"
       id="text83860-3"><tspan
         sodipodi:role="line"
         id="tspan83858-7"
         style="font-style:normal;font-variant:normal;font-weight:normal;font-stretch:normal;font-size:19.7556px;font-family:'Arial Black';-inkscape-font-specification:'Arial Black, ';writing-mode:lr-tb;stroke-width:0.264583"
         x="510.94235"
         y="634.77338">   Future Considerations</tspan></text>
    <rect
       style="fill:#bfc8c8;fill-opacity:1;stroke:#000000;stroke-width:0.27939999;stroke-linecap:round;stroke-miterlimit:4;stroke-dasharray:0,3.07339994;stroke-dashoffset:0;paint-order:stroke fill markers"
       id="rect114486-25"
       width="390.45816"
       height="29.005468"
       x="513.70911"
       y="351.41232"
       ry="8.5419426"
       rx="6.3107567" />
    <text
       xml:space="preserve"
       style="font-size:19.7556px;line-height:1.25;font-family:'Andale Mono';-inkscape-font-specification:'Andale Mono';writing-mode:tb-rl;stroke-width:0.264583"
       x="510.80035"
       y="372.60861"
       id="text83860-13"><tspan
         sodipodi:role="line"
         id="tspan83858-9"
         style="font-style:normal;font-variant:normal;font-weight:normal;font-stretch:normal;font-size:19.7556px;font-family:'Arial Black';-inkscape-font-specification:'Arial Black, ';writing-mode:lr-tb;stroke-width:0.264583"
         x="510.80035"
         y="372.60861">   Conclusions</tspan></text>
    <rect
       style="opacity:1;fill:#bfc8c8;fill-opacity:1;stroke:#000000;stroke-width:0.2794;stroke-linecap:round;stroke-miterlimit:4;stroke-dasharray:0, 3.0734;stroke-dashoffset:0;paint-order:stroke fill markers"
       id="rect114486"
       width="390.45816"
       height="29.005468"
       x="4.0243683"
       y="150.60529"
       ry="8.5419426"
       rx="6.3107567" />
    <text
       xml:space="preserve"
       style="font-size:19.7556px;line-height:1.25;font-family:'Andale Mono';-inkscape-font-specification:'Andale Mono';writing-mode:tb-rl;stroke-width:0.264583"
       x="1.1155947"
       y="171.80157"
       id="text83860"><tspan
         sodipodi:role="line"
         id="tspan83858"
         style="font-style:normal;font-variant:normal;font-weight:normal;font-stretch:normal;font-size:19.7556px;font-family:'Arial Black';-inkscape-font-specification:'Arial Black, ';writing-mode:lr-tb;stroke-width:0.264583"
         x="1.1155947"
         y="171.80157">   Introduction</tspan></text>
    <rect
       style="fill:#bfc8c8;fill-opacity:1;stroke:#000000;stroke-width:0.2794;stroke-linecap:round;stroke-miterlimit:4;stroke-dasharray:0, 3.0734;stroke-dashoffset:0;paint-order:stroke fill markers"
       id="rect114486-2"
       width="390.45816"
       height="29.005468"
       x="4.0243702"
       y="349.18115"
       ry="8.5419426"
       rx="6.3107567" />
    <text
       xml:space="preserve"
       style="font-size:19.7556px;line-height:1.25;font-family:'Andale Mono';-inkscape-font-specification:'Andale Mono';writing-mode:tb-rl;stroke-width:0.264583"
       x="1.1155947"
       y="370.37744"
       id="text83860-5"><tspan
         sodipodi:role="line"
         id="tspan83858-2"
         style="font-style:normal;font-variant:normal;font-weight:normal;font-stretch:normal;font-size:19.7556px;font-family:'Arial Black';-inkscape-font-specification:'Arial Black, ';writing-mode:lr-tb;stroke-width:0.264583"
         x="1.1155947"
         y="370.37744">   Dataset</tspan></text>
    <rect
       style="fill:#bfc8c8;fill-opacity:1;stroke:#000000;stroke-width:0.27939999;stroke-linecap:round;stroke-miterlimit:4;stroke-dasharray:0,3.07339994;stroke-dashoffset:0;paint-order:stroke fill markers"
       id="rect114486-24"
       width="390.45816"
       height="29.005468"
       x="513.70911"
       y="150.60529"
       ry="8.5419426"
       rx="6.3107567" />
    <text
       xml:space="preserve"
       style="font-size:19.7556px;line-height:1.25;font-family:'Andale Mono';-inkscape-font-specification:'Andale Mono';writing-mode:tb-rl;stroke-width:0.264583"
       x="510.80035"
       y="171.80157"
       id="text83860-58"><tspan
         sodipodi:role="line"
         id="tspan83858-6"
         style="font-style:normal;font-variant:normal;font-weight:normal;font-stretch:normal;font-size:19.7556px;font-family:'Arial Black';-inkscape-font-specification:'Arial Black, ';writing-mode:lr-tb;stroke-width:0.264583"
         x="510.80035"
         y="171.80157">   Results</tspan></text>
    <g
       fill="#231f20"
       id="g157980"
       transform="matrix(0.05183673,0,0,0.05770104,339.68756,347.44362)">
      <path
         d="m 21.4,432.5 h 76.1 c 5.8,0 10.4,-4.7 10.4,-10.4 V 116 c 0,-5.8 -4.7,-10.4 -10.4,-10.4 H 21.4 C 15.6,105.6 11,110.3 11,116 v 306.1 c 0,5.8 4.7,10.4 10.4,10.4 z M 31.9,126.4 H 87.1 V 411.6 H 31.9 Z"
         id="path157970" />
      <path
         d="m 152.5,432.5 h 76.1 c 5.8,0 10.4,-4.7 10.4,-10.4 V 209.3 c 0,-5.8 -4.7,-10.4 -10.4,-10.4 h -76.1 c -5.8,0 -10.4,4.7 -10.4,10.4 v 212.8 c -0.1,5.8 4.6,10.4 10.4,10.4 z m 10.4,-212.7 h 55.2 v 191.9 h -55.2 z"
         id="path157972" />
      <path
         d="m 283.5,432.5 h 76.1 c 5.8,0 10.4,-4.7 10.4,-10.4 V 46.3 c 0,-5.8 -4.7,-10.4 -10.4,-10.4 h -76.1 c -5.8,0 -10.4,4.7 -10.4,10.4 v 375.8 c 0,5.8 4.6,10.4 10.4,10.4 z M 293.9,56.7 h 55.2 v 355 h -55.2 z"
         id="path157974" />
      <path
         d="m 490.6,152.7 h -76.1 c -5.8,0 -10.4,4.7 -10.4,10.4 v 259 c 0,5.8 4.7,10.4 10.4,10.4 h 76.1 c 5.8,0 10.4,-4.7 10.4,-10.4 v -259 c 0,-5.7 -4.7,-10.4 -10.4,-10.4 z m -10.5,259 H 424.9 V 173.6 h 55.2 z"
         id="path157976" />
      <path
         d="M 490.6,455.3 H 21.4 c -5.8,0 -10.4,4.7 -10.4,10.4 0,5.7 4.7,10.4 10.4,10.4 h 469.1 c 5.8,0 10.4,-4.7 10.4,-10.4 0,-5.7 -4.6,-10.4 -10.3,-10.4 z"
         id="path157978" />
    </g>
    <g
       id="g158396"
       transform="matrix(1.0432143,0,0,1.0614367,14.097305,196.34467)">
      <g
         id="g158325">
        <g
           id="g158289" />
        <g
           id="g158323">
          <path
             d="m 24,16 c 3.309,0 6,-2.691 6,-6 0,-3.309 -2.691,-6 -6,-6 -3.309,0 -6,2.691 -6,6 0,3.309 2.691,6 6,6 z M 24,6 c 2.206,0 4,1.794 4,4 0,2.206 -1.794,4 -4,4 -2.206,0 -4,-1.794 -4,-4 0,-2.206 1.794,-4 4,-4 z"
             id="path158291" />
          <path
             d="m 7.586,14 3.707,3.707 C 11.484,17.898 11.74,18 12,18 12.129,18 12.259,17.976 12.383,17.924 12.756,17.77 13,17.404 13,17 v -3 c 1.654,0 3,-1.346 3,-3 V 7 C 16,5.346 14.654,4 13,4 H 3 C 1.346,4 0,5.346 0,7 v 4 c 0,1.654 1.346,3 3,3 z M 2,11 V 7 C 2,6.448 2.449,6 3,6 h 10 c 0.551,0 1,0.448 1,1 v 4 c 0,0.552 -0.449,1 -1,1 h -1 c -0.552,0 -1,0.447 -1,1 v 1.586 L 8.707,12.293 C 8.52,12.105 8.265,12 8,12 H 3 C 2.449,12 2,11.552 2,11 Z"
             id="path158293" />
          <rect
             x="4"
             y="8"
             width="8"
             height="2"
             id="rect158295" />
          <path
             d="M 51,0 H 38 C 35.243,0 33,2.243 33,5 V 16.532 L 27.86,18 H 18 c -2.757,0 -5,2.243 -5,5 v 8 H 9 v 2 h 29 v -2 h -7 v -6.341 l 2.078,-0.89 C 33.451,26.159 35.506,28 38,28 h 13 c 2.757,0 5,-2.243 5,-5 V 5 C 56,2.243 53.757,0 51,0 Z M 29.606,23.081 C 29.238,23.238 29,23.6 29,24 v 7 h -4 v -7 h 1 v -2 h -4 v 2 h 1 v 7 h -4 v -7 h -2 v 7 h -2 v -8 c 0,-1.654 1.346,-3 3,-3 h 10 c 0.093,0 0.186,-0.013 0.275,-0.038 l 7,-2 c 0.228,-0.065 0.425,-0.21 0.557,-0.407 l 3.323,-4.985 1.539,1.539 -4.345,6.083 z M 54,23 c 0,1.654 -1.346,3 -3,3 H 38 c -1.654,0 -3,-1.346 -3,-3 h -0.128 l 2.523,-1.081 c 0.168,-0.072 0.313,-0.188 0.42,-0.338 l 5,-7 c 0.284,-0.397 0.239,-0.942 -0.107,-1.288 l -3,-3 c -0.212,-0.212 -0.506,-0.313 -0.806,-0.288 -0.298,0.029 -0.567,0.191 -0.733,0.44 L 35,15.198 V 5 c 0,-1.654 1.346,-3 3,-3 h 13 c 1.654,0 3,1.346 3,3 z"
             id="path158297" />
          <rect
             x="38"
             y="5"
             width="13"
             height="2"
             id="rect158299" />
          <rect
             x="43"
             y="9"
             width="8"
             height="2"
             id="rect158301" />
          <rect
             x="45"
             y="13"
             width="6"
             height="2"
             id="rect158303" />
          <rect
             x="43"
             y="17"
             width="8"
             height="2"
             id="rect158305" />
          <rect
             x="40"
             y="21"
             width="11"
             height="2"
             id="rect158307" />
          <path
             d="m 31,49 h -6 c -2.757,0 -5,2.243 -5,5 v 2 h 2 v -2 c 0,-1.654 1.346,-3 3,-3 h 6 c 1.654,0 3,1.346 3,3 v 2 h 2 v -2 c 0,-2.757 -2.243,-5 -5,-5 z"
             id="path158309" />
          <path
             d="m 49,49 h -6 c -2.757,0 -5,2.243 -5,5 v 2 h 2 v -2 c 0,-1.654 1.346,-3 3,-3 h 6 c 1.654,0 3,1.346 3,3 v 2 h 2 v -2 c 0,-2.757 -2.243,-5 -5,-5 z"
             id="path158311" />
          <path
             d="M 13,49 H 7 c -2.757,0 -5,2.243 -5,5 v 2 h 2 v -2 c 0,-1.654 1.346,-3 3,-3 h 6 c 1.654,0 3,1.346 3,3 v 2 h 2 v -2 c 0,-2.757 -2.243,-5 -5,-5 z"
             id="path158313" />
          <rect
             x="40"
             y="31"
             width="2"
             height="2"
             id="rect158315" />
          <path
             d="m 6,43 c 0,2.206 1.794,4 4,4 2.206,0 4,-1.794 4,-4 v -1 h 2 v -2 h -2.142 c -0.447,-1.721 -2,-3 -3.858,-3 -2.206,0 -4,1.794 -4,4 z m 6,0 c 0,1.103 -0.897,2 -2,2 -1.103,0 -2,-0.897 -2,-2 v -1 h 4 z m -2,-4 c 0.737,0 1.375,0.405 1.722,1 H 8.279 C 8.625,39.405 9.263,39 10,39 Z"
             id="path158317" />
          <path
             d="m 28,47 c 2.206,0 4,-1.794 4,-4 v -1 h 2 v -2 h -2.142 c -0.447,-1.721 -2,-3 -3.858,-3 -2.206,0 -4,1.794 -4,4 v 2 c 0,2.206 1.794,4 4,4 z m 2,-4 c 0,1.103 -0.897,2 -2,2 -1.103,0 -2,-0.897 -2,-2 v -1 h 4 z m -2,-4 c 0.737,0 1.375,0.405 1.722,1 H 26.279 C 26.625,39.405 27.263,39 28,39 Z"
             id="path158319" />
          <path
             d="m 42,43 c 0,2.206 1.794,4 4,4 2.206,0 4,-1.794 4,-4 v -1 h 2 v -2 h -2.142 c -0.447,-1.721 -2,-3 -3.858,-3 -2.206,0 -4,1.794 -4,4 z m 6,0 c 0,1.103 -0.897,2 -2,2 -1.103,0 -2,-0.897 -2,-2 v -1 h 4 z m -2,-4 c 0.737,0 1.375,0.405 1.722,1 H 44.279 C 44.625,39.405 45.263,39 46,39 Z"
             id="path158321" />
        </g>
      </g>
      <g
         id="g158327" />
      <g
         id="g158329" />
      <g
         id="g158331" />
      <g
         id="g158333" />
      <g
         id="g158335" />
      <g
         id="g158337" />
      <g
         id="g158339" />
      <g
         id="g158341" />
      <g
         id="g158343" />
      <g
         id="g158345" />
      <g
         id="g158347" />
      <g
         id="g158349" />
      <g
         id="g158351" />
      <g
         id="g158353" />
      <g
         id="g158355" />
    </g>
    <g
       id="g158602"
       transform="matrix(1.6697634,0,0,1.735452,335.97338,191.57268)">
      <g
         id="g158548">
        <path
           d="m 15.94,11.735 c 0,0.588 -0.476,1.064 -1.065,1.064 H 5.298 c -0.588,0 -1.065,-0.476 -1.065,-1.064 0,-0.587 0.477,-1.063 1.065,-1.063 h 9.577 c 0.59,0 1.065,0.476 1.065,1.063 z m 5.58,-0.648 5.342,4.791 -11.327,12.627 -5.34,-4.791 z m -1.512,5.101 -0.033,-0.029 c -0.127,-0.114 -0.293,-0.172 -0.461,-0.163 -0.168,0.009 -0.328,0.085 -0.439,0.211 l -6.079,6.776 c -0.253,0.281 -0.229,0.713 0.052,0.965 0.126,0.115 0.291,0.174 0.461,0.164 0.168,-0.01 0.327,-0.086 0.44,-0.213 l 6.108,-6.81 c 0.236,-0.261 0.213,-0.666 -0.049,-0.901 z m 1.262,-2.437 -0.301,0.336 c -0.111,0.126 -0.17,0.292 -0.162,0.461 0.01,0.169 0.086,0.328 0.211,0.441 l 0.035,0.031 c 0.127,0.113 0.293,0.171 0.461,0.162 0.17,-0.009 0.328,-0.085 0.44,-0.211 l 0.728,-0.811 -0.51,-0.457 C 21.91,13.467 21.506,13.489 21.27,13.751 Z m 0.765,-3.241 5.341,4.791 1.312,-1.462 -5.34,-4.791 z m 9.012,0.7 -1.877,2.093 -5.341,-4.79 1.88,-2.093 c 0.247,-0.28 0.6,-0.448 0.975,-0.468 0.375,-0.021 0.742,0.109 1.021,0.359 l 3.234,2.903 c 0.581,0.521 0.63,1.415 0.108,1.996 z m -1.051,-0.946 -3.233,-2.902 -0.937,1.042 3.233,2.903 z m -20.439,14.164 5.339,4.791 -6.31,2.586 C 8.343,31.903 8.065,31.856 7.87,31.68 7.674,31.503 7.597,31.233 7.669,30.981 Z m 0.488,1.702 -0.722,2.507 1.411,1.268 2.412,-0.986 z M 8.215,24.285 7.592,26.447 H 2.859 c -1.332,0 -2.413,-1.08 -2.413,-2.412 V 6.493 c 0,-1.332 1.08,-2.413 2.413,-2.413 h 2.94 V 3.906 c 0,-0.492 0.399,-0.89 0.89,-0.89 h 0.74 C 7.414,2.909 7.406,2.781 7.406,2.661 7.406,1.194 8.599,0 10.067,0 c 1.469,0 2.661,1.194 2.661,2.661 0,0.12 -0.01,0.248 -0.023,0.354 h 0.749 c 0.492,0 0.89,0.399 0.89,0.89 v 0.174 h 2.87 c 1.332,0 2.412,1.081 2.412,2.413 v 4.63 l -2.128,2.372 V 7.506 c 0,-0.699 -0.565,-1.265 -1.264,-1.265 h -1.891 v 1.201 c 0,0.491 -0.399,0.89 -0.89,0.89 H 6.69 C 6.198,8.332 5.8,7.933 5.8,7.442 V 6.241 H 3.874 c -0.699,0 -1.265,0.567 -1.265,1.265 V 23.02 c 0,0.701 0.567,1.266 1.265,1.266 H 8.215 Z M 9.003,2.661 c 0,0.124 0.023,0.248 0.061,0.355 h 2.005 c 0.04,-0.107 0.062,-0.23 0.062,-0.355 0,-0.587 -0.477,-1.065 -1.064,-1.065 -0.588,0 -1.064,0.478 -1.064,1.065 z m 5.946,13.68 0.991,-1.105 C 15.926,14.66 15.456,14.182 14.876,14.182 H 5.298 c -0.588,0 -1.065,0.493 -1.065,1.082 0,0.587 0.477,1.082 1.065,1.082 h 9.577 c 0.025,-0.002 0.05,-0.004 0.074,-0.005 z m -10.716,2.45 c 0,0.588 0.477,1.062 1.065,1.062 H 11.8 l 1.907,-2.127 H 5.298 C 4.71,17.727 4.233,18.203 4.233,18.791 Z"
           id="path158546" />
      </g>
      <g
         id="g158550" />
      <g
         id="g158552" />
      <g
         id="g158554" />
      <g
         id="g158556" />
      <g
         id="g158558" />
      <g
         id="g158560" />
      <g
         id="g158562" />
      <g
         id="g158564" />
      <g
         id="g158566" />
      <g
         id="g158568" />
      <g
         id="g158570" />
      <g
         id="g158572" />
      <g
         id="g158574" />
      <g
         id="g158576" />
      <g
         id="g158578" />
    </g>
    <g
       id="g160481"
       transform="matrix(2.415337,0,0,2.279864,51.131602,12.037274)">
      <path
         style="fill:#e6e6e6;stroke:#e64c3c;stroke-width:2;stroke-linecap:round;stroke-linejoin:round;stroke-miterlimit:10"
         d="M 53.527,12.23 47.209,7.37 c -11.04,-8.492 -26.413,-8.492 -37.453,0 l -6.318,4.86 c -0.602,0.463 -0.955,1.18 -0.955,1.939 v 23.795 l 8.56,2.334 c 1.62,0.442 3.291,0.666 4.969,0.666 H 17.34 L 16.482,35 h 25 l -0.857,5.964 h 1.085 c 1.838,0 3.666,-0.268 5.427,-0.797 l 7.345,-2.203 V 14.169 c 0,-0.76 -0.353,-1.476 -0.955,-1.939 z"
         id="path160401" />
      <path
         style="fill:#ffffff;stroke:#e64c3c;stroke-width:2;stroke-miterlimit:10"
         d="m 40.482,31 h -24 V 16.396 C 16.482,15.625 17.107,15 17.878,15 h 21.207 c 0.771,0 1.396,0.625 1.396,1.396 V 31 Z"
         id="path160403" />
      <path
         style="fill:none;stroke:#bdc3c7;stroke-width:2;stroke-linecap:round;stroke-linejoin:round;stroke-miterlimit:10"
         d="M 38.482,55.964 34.01,51.695 29.482,55.75 24.837,51.352 c -0.196,-0.195 -0.513,-0.195 -0.709,0 l -4.645,4.612 -3,-20.964 h 25 z"
         id="path160405" />
      <line
         style="fill:none;stroke:#bdc3c7;stroke-width:2;stroke-linecap:round;stroke-linejoin:round;stroke-miterlimit:10"
         x1="41.481998"
         y1="35"
         x2="19.482"
         y2="55.964001"
         id="line160407" />
      <line
         style="fill:none;stroke:#bdc3c7;stroke-width:2;stroke-linecap:round;stroke-linejoin:round;stroke-miterlimit:10"
         x1="16.482"
         y1="35"
         x2="38.481998"
         y2="55.964001"
         id="line160409" />
      <line
         style="fill:none;stroke:#bdc3c7;stroke-width:2;stroke-miterlimit:10"
         x1="29.482"
         y1="34.964001"
         x2="18.482"
         y2="44.964001"
         id="line160411" />
      <line
         style="fill:none;stroke:#bdc3c7;stroke-width:2;stroke-miterlimit:10"
         x1="28.482"
         y1="34.964001"
         x2="39.481998"
         y2="44.964001"
         id="line160413" />
      <line
         style="fill:none;stroke:#bdc3c7;stroke-width:2;stroke-linecap:round;stroke-linejoin:round;stroke-miterlimit:10"
         x1="29.482"
         y1="55.75"
         x2="18.482"
         y2="45.964001"
         id="line160415" />
      <line
         style="fill:none;stroke:#bdc3c7;stroke-width:2;stroke-linecap:round;stroke-linejoin:round;stroke-miterlimit:10"
         x1="29.482"
         y1="55.75"
         x2="39.481998"
         y2="45.964001"
         id="line160417" />
      <path
         style="fill:#38454f"
         d="m 42.982,35 h -29 c -1.375,0 -2.5,-1.161 -2.5,-2.536 v 0 c 0,-1.375 1.125,-2.464 2.5,-2.464 h 29 c 1.375,0 2.5,1.089 2.5,2.464 v 0 c 0,1.375 -1.125,2.536 -2.5,2.536 z"
         id="path160419" />
      <g
         id="g160421" />
      <g
         id="g160423" />
      <g
         id="g160425" />
      <g
         id="g160427" />
      <g
         id="g160429" />
      <g
         id="g160431" />
      <g
         id="g160433" />
      <g
         id="g160435" />
      <g
         id="g160437" />
      <g
         id="g160439" />
      <g
         id="g160441" />
      <g
         id="g160443" />
      <g
         id="g160445" />
      <g
         id="g160447" />
      <g
         id="g160449" />
    </g>
    <g
       id="g160632"
       transform="matrix(0.05521744,0,0,0.05550639,410.7361,622.69789)">
      <g
         id="XMLID_520_">
        <circle
           id="XMLID_904_"
           cx="136.16"
           cy="46.036999"
           r="44.838001" />
        <path
           id="XMLID_910_"
           d="m 240.731,305.545 c -1.264,-9.895 -8.429,-18.02 -18.087,-20.514 l -52.085,-13.447 1.163,-16.39 c -8.885,-1.694 -16.37,-7.756 -19.897,-16.015 l -31.752,-74.673 48.394,61.597 c 4.192,5.335 10.779,8.239 17.586,7.701 l 41.863,-3.331 c -0.288,0.993 -0.45,2.039 -0.45,3.125 0,6.191 5.019,11.21 11.21,11.21 10.431,0 88.443,0 101.125,0 5.07,0 9.509,-3.403 10.826,-8.299 L 379.09,130.684 c 1.608,-5.979 -1.935,-12.129 -7.914,-13.737 -5.979,-1.606 -12.129,1.934 -13.737,7.914 l -26.231,97.526 c -10.763,0 -41.988,0 -52.497,0 4.662,-4.086 7.417,-10.228 6.888,-16.882 -0.89,-11.184 -10.663,-19.538 -21.862,-18.64 l -70.048,5.573 -41.666,-53.033 26.514,19.782 0.852,-11.999 C 180.573,130.502 168.007,116.014 151.32,114.83 L 99.909,111.181 C 82.307,109.932 67.342,123.96 67.476,141.625 l 1.14,149.945 c 0.047,6.217 2.333,12.15 6.347,16.768 H 54.218 L 32.376,135.868 c -1.127,-8.904 -9.256,-15.213 -18.164,-14.081 -8.904,1.128 -15.209,9.26 -14.081,18.164 l 23.641,186.68 c 1.029,8.121 7.937,14.21 16.123,14.21 h 58.689 v 66.553 l -38.605,31.514 c -4.796,3.915 -5.511,10.977 -1.595,15.773 3.915,4.797 10.978,5.51 15.773,1.595 l 24.426,-19.94 v 11.256 c 0,6.191 5.019,11.21 11.21,11.21 6.191,0 11.21,-5.019 11.21,-11.21 v -11.256 l 24.426,19.94 c 2.082,1.699 4.59,2.527 7.083,2.527 3.25,-10e-4 6.475,-1.407 8.691,-4.122 3.915,-4.796 3.201,-11.858 -1.595,-15.773 l -38.605,-31.514 v -66.553 h 53.516 c 8.119,0 14.829,-5.961 16.038,-13.741 l 3.905,1.008 13.979,109.404 c 1.707,13.365 13.927,22.798 27.27,21.091 13.355,-1.706 22.797,-13.916 21.091,-27.27 z" />
        <path
           id="XMLID_911_"
           d="M 443.748,259.363 H 259.15 c -8.975,0 -16.252,7.276 -16.252,16.252 0,8.976 7.276,16.252 16.252,16.252 H 427.496 V 426.3 h -76.485 c -8.975,0 -16.252,7.276 -16.252,16.252 0,8.976 7.276,16.252 16.252,16.252 h 92.737 c 8.975,0 16.252,-7.276 16.252,-16.252 V 275.614 c 0,-8.975 -7.276,-16.251 -16.252,-16.251 z" />
      </g>
      <g
         id="g160578" />
      <g
         id="g160580" />
      <g
         id="g160582" />
      <g
         id="g160584" />
      <g
         id="g160586" />
      <g
         id="g160588" />
      <g
         id="g160590" />
      <g
         id="g160592" />
      <g
         id="g160594" />
      <g
         id="g160596" />
      <g
         id="g160598" />
      <g
         id="g160600" />
      <g
         id="g160602" />
      <g
         id="g160604" />
      <g
         id="g160606" />
    </g>
    <g
       id="g163560"
       transform="matrix(0.05558385,0,0,0.05951563,853.30961,149.34102)">
      <g
         id="g163489">
        <g
           id="g163457">
          <g
             id="g163455">
            <path
               d="M 502.664,154.144 C 502.621,89.949 450.592,37.942 386.419,37.942 326.258,37.942 277.379,83.78 271.36,142.323 H 34.492 C 15.531,142.302 0,157.833 0,176.793 v 249.25 c 0,19.004 15.531,34.492 34.492,34.492 h 249.25 c 19.004,0 34.578,-15.488 34.578,-34.492 v -178.11 c 14.258,10.354 30.911,17.515 49.009,20.514 l 0.496,27.05 -16.61,5.565 v 148.601 c 0,0 15.962,16.394 36.886,14.97 20.881,-1.402 33.435,-14.927 33.435,-14.927 l 0.022,-148.623 -15.509,-3.818 -0.453,-28.819 c 55.026,-9.231 97.025,-56.708 97.068,-114.302 z m -116.267,89.497 c -49.376,0 -89.454,-40.079 -89.454,-89.519 0,-49.44 40.035,-89.454 89.497,-89.454 49.375,-0.065 89.454,39.992 89.497,89.519 -0.042,49.397 -40.035,89.454 -89.54,89.454 z M 258.785,392.199 H 59.449 v -22.692 h 199.336 z m 0,-79.402 H 59.449 v -22.736 h 199.336 z m 0,-79.38 H 59.449 v -22.736 h 199.336 z"
               id="path163453" />
          </g>
        </g>
        <g
           id="g163459" />
        <g
           id="g163461" />
        <g
           id="g163463" />
        <g
           id="g163465" />
        <g
           id="g163467" />
        <g
           id="g163469" />
        <g
           id="g163471" />
        <g
           id="g163473" />
        <g
           id="g163475" />
        <g
           id="g163477" />
        <g
           id="g163479" />
        <g
           id="g163481" />
        <g
           id="g163483" />
        <g
           id="g163485" />
        <g
           id="g163487" />
      </g>
      <g
         id="g163491" />
      <g
         id="g163493" />
      <g
         id="g163495" />
      <g
         id="g163497" />
      <g
         id="g163499" />
      <g
         id="g163501" />
      <g
         id="g163503" />
      <g
         id="g163505" />
      <g
         id="g163507" />
      <g
         id="g163509" />
      <g
         id="g163511" />
      <g
         id="g163513" />
      <g
         id="g163515" />
      <g
         id="g163517" />
      <g
         id="g163519" />
    </g>
    <g
       id="g163673"
       transform="matrix(0.26458333,0,0,0.2424173,343.72444,623.37438)">
      <g
         id="g163619">
        <path
           d="M 96.832,88.406 73.812,48.498 V 21.959 C 78.197,20.364 81.259,16.162 81.259,11.341 81.26,5.089 76.176,0 69.928,0 H 42.6 c -6.251,0 -11.334,5.089 -11.334,11.341 0,4.815 3.07,9.017 7.457,10.618 v 26.55 L 36.64,52.194 V 30.359 c 0,-1.546 -1.257,-2.802 -2.803,-2.802 H 8.723 c -1.546,0 -2.801,1.256 -2.801,2.802 v 59.557 c 0,7.475 5.742,13.614 13.174,14.648 0.331,0.126 0.683,0.214 1.059,0.214 h 67.227 c 4.79,0 8.433,-1.762 10.282,-4.979 1.839,-3.201 1.544,-7.256 -0.832,-11.393 z m -85.319,1.51 v -6.079 h 8.254 c 1.546,0 2.802,-1.26 2.802,-2.802 0,-1.549 -1.256,-2.802 -2.802,-2.802 h -8.254 v -9.09 h 8.254 c 1.546,0 2.802,-1.263 2.802,-2.801 0,-1.555 -1.256,-2.802 -2.802,-2.802 h -8.254 v -9.097 h 8.254 c 1.546,0 2.802,-1.256 2.802,-2.801 0,-1.55 -1.256,-2.803 -2.802,-2.803 h -8.254 v -15.69 h 19.512 v 56.767 c 0,5.095 -4.375,9.248 -9.756,9.248 -5.386,0.006 -9.756,-4.153 -9.756,-9.248 z m 81.281,7.081 c -0.799,1.379 -2.779,2.178 -5.432,2.178 H 33.189 c 2.118,-2.55 3.439,-5.734 3.439,-9.259 V 63.19 c 0.245,-0.207 0.476,-0.443 0.645,-0.743 l 6.679,-11.82 c 0.236,-0.422 0.364,-0.898 0.364,-1.379 V 19.776 c 0,-1.415 -1.048,-2.603 -2.449,-2.78 -2.859,-0.364 -5.015,-2.796 -5.015,-5.655 0,-3.161 2.571,-5.738 5.731,-5.738 H 69.91 c 3.165,0 5.734,2.577 5.734,5.738 0,2.859 -2.155,5.286 -5.017,5.655 -1.401,0.178 -2.446,1.365 -2.446,2.78 v 29.472 c 0,0.493 0.122,0.977 0.374,1.401 l 23.396,40.559 c 1.341,2.298 1.642,4.409 0.843,5.789 z M 76.466,79.53 c 0,5.412 -4.377,9.794 -9.801,9.794 -5.411,0 -9.795,-4.382 -9.795,-9.794 0,-5.406 4.384,-9.795 9.795,-9.795 5.424,0 9.801,4.389 9.801,9.795 z M 54.609,68.877 c 0,2.665 -2.146,4.799 -4.802,4.799 -2.657,0 -4.802,-2.156 -4.802,-4.799 0,-2.644 2.15,-4.8 4.802,-4.8 2.661,0 4.802,2.156 4.802,4.8 z m 3.586,-10.829 c -1.672,0 -3.015,-1.341 -3.015,-3.01 0,-1.667 1.343,-3.009 3.015,-3.009 1.663,0 3.015,1.343 3.015,3.009 0,1.669 -1.357,3.01 -3.015,3.01 z m -8.661,28.267 c 0,1.669 -1.352,3.009 -3.016,3.009 -1.665,0 -3.014,-1.34 -3.014,-3.009 0,-1.663 1.349,-3.016 3.014,-3.016 1.664,10e-4 3.016,1.353 3.016,3.016 z m 5.271,-40.131 c -2.185,0 -3.956,-1.771 -3.956,-3.957 0,-2.186 1.771,-3.957 3.956,-3.957 2.183,0 3.957,1.771 3.957,3.957 0,2.187 -1.779,3.957 -3.957,3.957 z"
           id="path163617" />
      </g>
      <g
         id="g163621" />
      <g
         id="g163623" />
      <g
         id="g163625" />
      <g
         id="g163627" />
      <g
         id="g163629" />
      <g
         id="g163631" />
      <g
         id="g163633" />
      <g
         id="g163635" />
      <g
         id="g163637" />
      <g
         id="g163639" />
      <g
         id="g163641" />
      <g
         id="g163643" />
      <g
         id="g163645" />
      <g
         id="g163647" />
      <g
         id="g163649" />
    </g>
    <g
       id="g163821"
       transform="matrix(0.04960937,0,0,0.05291667,853.19013,352.32797)">
      <g
         id="g163760">
        <path
           style="fill:#003b54"
           d="m 496,16 c -8.836,0 -16,7.164 -16,16 V 48 H 32 V 32 C 32,23.164 24.836,16 16,16 7.164,16 0,23.164 0,32 v 32 192 224 c 0,8.836 7.164,16 16,16 8.836,0 16,-7.164 16,-16 V 272 h 448 v 208 c 0,8.836 7.164,16 16,16 8.836,0 16,-7.164 16,-16 V 256 64 32 c 0,-8.836 -7.164,-16 -16,-16 z m -80,224 v -80 h -80 v 80 h -80 v -80 h -80 v 80 H 96 V 160 H 32 V 80 h 64 v 80 h 80 V 80 h 80 v 80 h 80 V 80 h 80 v 80 h 64 v 80 z"
           id="path163744" />
        <g
           id="g163758">
          <rect
             x="256"
             y="160"
             style="fill:#ffffff"
             width="80"
             height="80"
             id="rect163746" />
          <rect
             x="32"
             y="80"
             style="fill:#ffffff"
             width="64"
             height="80"
             id="rect163748" />
          <rect
             x="96"
             y="160"
             style="fill:#ffffff"
             width="80"
             height="80"
             id="rect163750" />
          <rect
             x="416"
             y="160"
             style="fill:#ffffff"
             width="64"
             height="80"
             id="rect163752" />
          <rect
             x="336"
             y="80"
             style="fill:#ffffff"
             width="80"
             height="80"
             id="rect163754" />
          <rect
             x="176"
             y="80"
             style="fill:#ffffff"
             width="80"
             height="80"
             id="rect163756" />
        </g>
      </g>
      <g
         id="g163762" />
      <g
         id="g163764" />
      <g
         id="g163766" />
      <g
         id="g163768" />
      <g
         id="g163770" />
      <g
         id="g163772" />
      <g
         id="g163774" />
      <g
         id="g163776" />
      <g
         id="g163778" />
      <g
         id="g163780" />
      <g
         id="g163782" />
      <g
         id="g163784" />
      <g
         id="g163786" />
      <g
         id="g163788" />
      <g
         id="g163790" />
    </g>
    <g
       id="g164130"
       transform="matrix(0.11993821,0,0,0.1349712,930.22137,160.78456)">
      <g
         id="g164057">
        <g
           id="g164055">
          <circle
             cx="129.673"
             cy="199.039"
             r="32.215"
             id="circle164053" />
        </g>
      </g>
      <g
         id="g164063">
        <g
           id="g164061">
          <path
             d="m 249.661,132.749 c -18.965,0 -34.218,15.406 -34.218,34.218 0,1.71 0.13,3.388 0.371,5.03 -6.559,0.342 -12.193,4.22 -14.983,9.774 l -27.609,54.97 -58.294,7.092 -32.6,-10.968 c -10.07,-3.449 -21.032,1.918 -24.481,11.989 L 16.582,365.76 c -1.584,7.41 1.403,15.358 8.134,19.739 l 46.237,30.099 -46.051,66.855 c -5.905,8.574 -3.742,20.311 4.831,26.216 8.579,5.909 20.316,3.736 26.216,-4.831 l 18.308,-26.58 22.669,-68.035 -52.977,-17.293 71.406,11.018 -28.068,84.239 c -3.29,9.877 2.049,20.551 11.924,23.842 9.875,3.29 20.551,-2.047 23.842,-11.924 L 158.18,393.683 c 3.69,-11.073 -3.484,-22.809 -15.009,-24.588 L 49.7,354.671 l 57.745,-0.54 24.694,-72.093 -19.296,-2.122 74.14,-9.02 c 5.906,-0.719 11.069,-4.346 13.744,-9.672 27.757,-55.257 32.283,-64.366 32.283,-64.366 4.918,2.746 10.581,4.319 16.612,4.325 0.013,0 0.027,0.001 0.04,0.001 18.898,0.001 34.218,-15.319 34.218,-34.217 0,-18.898 -15.321,-34.218 -34.219,-34.218 z"
             id="path164059" />
        </g>
      </g>
      <g
         id="g164069">
        <g
           id="g164067">
          <path
             d="M 479.052,0 C 469.784,0 462.27,7.514 462.27,16.782 v 34.203 c 0,0 -108.341,0 -114.031,0 -8.082,0 -14.115,7.259 -12.384,15.167 l 16.827,76.883 c 1.273,5.819 6.428,9.968 12.384,9.968 4.331,0 40.327,0 44.486,0 5.958,0 11.111,-4.148 12.384,-9.968 l 12.751,-58.264 h 27.582 v 410.447 c 0,9.268 7.514,16.782 16.782,16.782 9.268,0 16.782,-7.514 16.782,-16.782 V 16.782 C 495.835,7.514 488.322,0 479.052,0 Z"
             id="path164065" />
        </g>
      </g>
      <g
         id="g164071" />
      <g
         id="g164073" />
      <g
         id="g164075" />
      <g
         id="g164077" />
      <g
         id="g164079" />
      <g
         id="g164081" />
      <g
         id="g164083" />
      <g
         id="g164085" />
      <g
         id="g164087" />
      <g
         id="g164089" />
      <g
         id="g164091" />
      <g
         id="g164093" />
      <g
         id="g164095" />
      <g
         id="g164097" />
      <g
         id="g164099" />
    </g>
    <g
       id="g1821"
       transform="matrix(0.05646757,0,0,0.05323162,338.19198,150.92286)">
      <g
         id="g1694">
	<g
   id="g1692">
		<path
   d="m 213.569,98.294 c -1.899,10.762 -0.099,22.629 3.771,32.792 9.024,-17.808 13.922,-25.825 19.696,-32.792 -8.483,0 -15.035,0 -23.467,0 z"
   id="path1690" />

	</g>

</g>
      <g
         id="g1700">
	<g
   id="g1698">
		<path
   d="m 143.549,98.293 c 0.548,14.526 12.491,26.136 27.151,26.136 14.66,0 26.603,-11.61 27.151,-26.136 -8.722,0 -43.477,0 -54.302,0 z"
   id="path1696" />

	</g>

</g>
      <g
         id="g1706">
	<g
   id="g1704">
		<path
   d="m 231.851,365.869 c 9.46,-0.914 16.4,-9.172 15.779,-18.563 l -1.3,-19.674 c -11.981,0.695 -23.623,-3.584 -32.33,-11.711 h -35.93 c -2.297,-23.803 -2.098,-21.756 -2.099,-23.098 h -10.534 c -0.001,1.343 0.196,-0.687 -2.099,23.098 h -50.122 l 3.474,-56.229 h 78.525 l -4.369,-24.99 H 116.69 v -89.479 c 3.969,-5.498 7.305,-12.367 9.487,-20.123 2.705,-9.615 3.166,-18.86 1.785,-26.689 0,0 -17.613,-0.078 -17.608,0 -21.677,2.678 -31.507,21.476 -37.552,32.985 -3.122,5.946 -9.877,17.332 -32.18,68.002 -1.613,3.668 -2.106,7.731 -1.416,11.678 l 13.46,76.988 c 1.931,11.05 12.455,18.441 23.503,16.509 11.048,-1.931 18.44,-12.454 16.509,-23.504 L 80.28,210.157 c 4.849,-10.905 12.535,-28.364 18.723,-41.25 0,54.203 0.494,71.764 0,88.769 -0.509,17.465 -1.856,34.341 -5.231,89.723 -0.571,9.372 6.372,17.566 15.786,18.471 L 98.07,485.294 c -1.289,13.398 8.527,25.305 21.926,26.594 13.364,1.292 25.302,-8.502 26.594,-21.925 l 11.931,-124.008 c 2.088,0 7.081,0.332 12.185,-3.503 5.043,3.788 9.929,3.503 12.185,3.503 l 11.931,124.008 c 1.291,13.419 13.227,23.22 26.594,21.925 13.397,-1.289 23.214,-13.195 21.926,-26.594 z m -71.648,-17.411 h -48.968 l 0.841,-13.795 h 49.456 c -0.402,4.16 -0.843,8.736 -1.329,13.795 z m 21.004,0 c -0.486,-5.059 -0.927,-9.637 -1.329,-13.795 h 49.386 l 0.911,13.795 z"
   id="path1702" />

	</g>

</g>
      <g
         id="g1712">
	<g
   id="g1710">
		<path
   d="m 170.7,0.589 c -23.246,0 -42.092,18.845 -42.092,42.092 -0.001,23.224 18.859,42.092 42.092,42.092 23.213,0 42.092,-18.849 42.092,-42.092 0,-23.246 -18.845,-42.092 -42.092,-42.092 z"
   id="path1708" />

	</g>

</g>
      <g
         id="g1718">
	<g
   id="g1716">
		<path
   d="m 170.863,169.89 h -4.461 l 0.687,-9.198 h 15.033 c 2.059,0 3.088,-2.333 3.088,-4.667 0,-2.333 -1.029,-4.667 -3.088,-4.667 h -21.896 c -1.167,0 -1.715,1.235 -1.921,3.294 -1.876,17.503 -1.99,18.181 -1.99,19.289 0,2.607 0.961,4.186 4.117,4.186 h 10.433 c 3.775,0 6.11,2.196 6.11,6.726 -0.001,4.537 -0.951,7.756 -6.248,7.756 -3.363,0 -5.972,-1.443 -5.972,-4.188 0,-2.196 -0.686,-3.98 -5.353,-3.98 -3.364,0 -5.354,1.029 -5.354,4.736 0,6.452 5.904,12.768 16.954,12.768 9.197,0 16.679,-4.325 16.679,-15.787 0,-10.436 -4.733,-16.268 -16.818,-16.268 z"
   id="path1714" />

	</g>

</g>
      <g
         id="g1724">
	<g
   id="g1722">
		<path
   d="m 471.38,198.806 c -8.216,-18.677 -25.79,-57.943 -36.791,-76.362 -6.227,-10.427 -15.744,-22.316 -32.23,-24.646 0.009,-0.109 -17.604,0 -17.604,0 -1.382,7.829 -0.921,17.097 1.785,26.712 2.076,7.379 5.198,13.955 8.913,19.311 v 90.291 H 287.876 v -89.479 c 3.969,-5.497 7.305,-12.367 9.487,-20.123 2.705,-9.615 3.166,-18.883 1.785,-26.712 0,0 -17.613,-0.078 -17.608,0 -21.677,2.678 -31.507,21.499 -37.552,33.007 -3.133,5.966 -9.829,17.231 -32.182,68.001 -1.613,3.668 -2.106,7.731 -1.416,11.677 l 13.46,76.988 c 1.931,11.049 12.453,18.44 23.503,16.508 11.049,-1.931 18.44,-12.454 16.509,-23.503 l -12.398,-70.912 c 4.849,-10.905 12.728,-28.364 18.916,-41.25 v 89.485 c -0.65,10.665 -4.783,78.493 -5.425,89.006 -0.573,9.394 6.401,17.597 15.843,18.474 l -11.547,120.012 c -1.289,13.398 8.527,25.305 21.926,26.594 13.364,1.293 25.302,-8.503 26.594,-21.925 l 11.988,-124.598 c 2.225,0 7.094,0.28 12.128,-3.503 4.72,3.547 9.137,3.503 12.127,3.503 l 11.988,124.598 c 1.291,13.419 13.227,23.22 26.594,21.925 13.397,-1.289 23.214,-13.195 21.926,-26.594 L 402.975,365.278 c 9.506,-0.883 16.459,-9.168 15.837,-18.563 l -5.87,-88.865 v -89.244 c 6.166,12.854 13.963,30.132 18.777,40.956 l -12.399,70.912 c -1.931,11.049 5.459,21.572 16.508,23.503 11.051,1.931 21.572,-5.461 23.504,-16.508 l 13.46,-76.988 c 0.696,-3.945 0.203,-8.008 -1.412,-11.675 z M 331.389,347.869 H 282.42 l 0.841,-13.795 h 49.456 c -0.401,4.159 -0.841,8.736 -1.328,13.795 z m 15.769,-55.635 h -10.534 c -0.001,1.343 0.196,-0.686 -2.099,23.098 h -50.122 l 3.474,-56.229 h 107.576 l 3.758,56.229 h -49.955 c -2.296,-23.803 -2.097,-21.757 -2.098,-23.098 z m 5.234,55.635 c -0.486,-5.059 -0.927,-9.635 -1.328,-13.795 h 49.386 l 0.911,13.795 z"
   id="path1720" />

	</g>

</g>
      <g
         id="g1730">
	<g
   id="g1728">
		<path
   d="m 314.735,97.797 c 0.548,14.526 12.491,26.043 27.151,26.043 14.66,0 26.603,-11.517 27.151,-26.043 -34.648,0 -16.701,0 -54.302,0 z"
   id="path1726" />

	</g>

</g>
      <g
         id="g1736">
	<g
   id="g1734">
		<path
   d="m 341.886,0 c -23.246,0 -42.092,18.845 -42.092,42.092 0,11.854 4.906,22.555 12.791,30.205 7.579,7.353 17.907,11.888 29.301,11.888 11.394,0 21.722,-4.534 29.301,-11.887 7.885,-7.65 12.791,-18.351 12.791,-30.205 C 383.978,18.845 365.133,0 341.886,0 Z"
   id="path1732" />

	</g>

</g>
      <g
         id="g1742">
	<g
   id="g1740">
		<path
   d="m 352.141,174.447 c 3.433,-1.579 5.285,-6.246 5.285,-11.256 0,-9.266 -6.589,-12.424 -15.305,-12.424 -11.806,0 -15.65,6.933 -15.65,12.287 0,3.294 0.617,4.325 5.559,4.325 3.98,0 5.01,-1.579 5.01,-3.912 0,-2.677 1.715,-3.5 5.08,-3.5 2.814,0 5.078,0.961 5.078,4.942 0,5.559 -2.746,5.902 -5.353,5.902 -2.335,0 -3.089,2.06 -3.089,4.119 0,2.06 0.756,4.119 3.089,4.119 5.824,0 6.589,2.288 6.589,6.796 -0.001,4.46 -1.649,6.176 -6.316,6.176 -3.088,0 -6.11,-0.755 -6.11,-3.981 0,-2.608 -1.098,-3.569 -5.491,-3.569 -3.774,0 -5.078,0.823 -5.078,3.912 0,5.765 4.53,12.973 16.337,12.973 9.609,0 17.365,-4.256 17.365,-15.512 0.002,-5.426 -1.296,-9.271 -7,-11.397 z"
   id="path1738" />

	</g>

</g>
      <g
         id="g1744">
</g>
      <g
         id="g1746">
</g>
      <g
         id="g1748">
</g>
      <g
         id="g1750">
</g>
      <g
         id="g1752">
</g>
      <g
         id="g1754">
</g>
      <g
         id="g1756">
</g>
      <g
         id="g1758">
</g>
      <g
         id="g1760">
</g>
      <g
         id="g1762">
</g>
      <g
         id="g1764">
</g>
      <g
         id="g1766">
</g>
      <g
         id="g1768">
</g>
      <g
         id="g1770">
</g>
      <g
         id="g1772">
</g>
    </g>
    <text
       xml:space="preserve"
       style="font-size:12.7px;line-height:1.25;font-family:'Andale Mono';-inkscape-font-specification:'Andale Mono';writing-mode:lr-tb;fill:#ffffff;stroke-width:0.264583"
       x="313.78848"
       y="129.409"
       id="text4241"><tspan
         sodipodi:role="line"
         id="tspan4239"
         style="font-style:normal;font-variant:normal;font-weight:normal;font-stretch:normal;font-size:12.7px;font-family:Arial;-inkscape-font-specification:Arial;writing-mode:lr-tb;fill:#ffffff;stroke-width:0.264583"
         x="313.78848"
         y="129.409">Authors: Kajal Tiwary, Austin Eaton, Jackson Piccione, Abby Fremaux</tspan></text>
  </g>
</svg>
